<?xml version="1.0" encoding="UTF-8" standalone="no"?>
<!-- Created with Inkscape (http://www.inkscape.org/) -->

<svg
   width="16"
   height="16"
   viewBox="0 0 16 16"
   version="1.1"
   id="svg1"
   xml:space="preserve"
   sodipodi:docname="x.svg"
   inkscape:version="1.4 (e7c3feb100, 2024-10-09)"
   xmlns:inkscape="http://www.inkscape.org/namespaces/inkscape"
   xmlns:sodipodi="http://sodipodi.sourceforge.net/DTD/sodipodi-0.dtd"
   xmlns="http://www.w3.org/2000/svg"
   xmlns:svg="http://www.w3.org/2000/svg"><sodipodi:namedview
     id="namedview1"
     pagecolor="#505050"
     bordercolor="#eeeeee"
     borderopacity="1"
     inkscape:showpageshadow="0"
     inkscape:pageopacity="0"
     inkscape:pagecheckerboard="0"
     inkscape:deskcolor="#505050"
     inkscape:document-units="px"
     showgrid="true"
     inkscape:zoom="32"
     inkscape:cx="0.578125"
     inkscape:cy="9.8125"
     inkscape:window-width="1920"
     inkscape:window-height="1011"
     inkscape:window-x="0"
     inkscape:window-y="0"
     inkscape:window-maximized="1"
     inkscape:current-layer="layer1"><inkscape:grid
       id="grid1"
       units="px"
       originx="0"
       originy="0"
       spacingx="1"
       spacingy="1"
       empcolor="#0099e5"
       empopacity="0.30196078"
       color="#0099e5"
       opacity="0.14901961"
       empspacing="5"
       enabled="true"
       visible="true" /></sodipodi:namedview><defs
     id="defs1" /><g
     inkscape:label="Layer 1"
     inkscape:groupmode="layer"
     id="layer1"><path
       id="text2"
       style="fill:#ffffff;stroke-width:1.39557;paint-order:fill markers stroke"
       d="M 3 4 L 3 5 L 4 5 L 4 6 L 5 6 L 5 7 L 6 7 L 6 8 L 7 8 L 7 9 L 6 9 L 6 10 L 5 10 L 5 11 L 4 11 L 4 12 L 3 12 L 3 13 L 5 13 L 5 12 L 6 12 L 6 11 L 7 11 L 7 10 L 8 10 L 9 10 L 9 11 L 10 11 L 10 12 L 11 12 L 11 13 L 13 13 L 13 12 L 12 12 L 12 11 L 11 11 L 11 10 L 10 10 L 10 9 L 9 9 L 9 8 L 10 8 L 10 7 L 11 7 L 11 6 L 12 6 L 12 5 L 13 5 L 13 4 L 11 4 L 11 5 L 10 5 L 10 6 L 9 6 L 9 7 L 8 7 L 7 7 L 7 6 L 6 6 L 6 5 L 5 5 L 5 4 L 3 4 z " /></g></svg>
